<svg viewBox="0 0 100 100" xmlns="http://www.w3.org/2000/svg" fill-rule="evenodd" clip-rule="evenodd" stroke-linejoin="round" stroke-miterlimit="2"><g fill="#fff"><path d="M49.269 4.018l.38-1.18c.195-.61.515-.61.71 0l.444 1.393.007-.001 3.944 12.299.016.053.336 1.051v78.12a.268.268 0 01-.092.186s-2.188 1.68-5.015 1.68c-2.824 0-5.012-1.68-5.012-1.68a.261.261 0 01-.094-.186v-78.12l.002-.002.63-1.967 3.738-11.649.006.003z"/><path d="M50.156.48l.15.017.146.027.141.037.134.045.125.051.118.056.109.062.101.064.11.08.079.065.124.114.077.076.113.133.096.13.082.125.07.122.061.118.054.116.047.113.042.113.034.099.445 1.4.01.005 3.957 12.34.01.032.33 1.034-.369-.66.46 1.24V95.79l-.005.12-.017.144-.023.13-.036.145-.033.1-.068.175-.011.025-.079.158-.013.024-.097.154-.015.022-.12.155-.071.083-.114.111-.105.09-.09.068-.102.073-.076.053-.086.057-.097.065-.108.07-.121.075-.133.079-.142.083-.155.087-.165.09-.172.09-.095.048-.094.046-.098.047-.099.048-.102.046-.104.047-.107.047-.11.046-.11.046-.115.046-.116.046-.12.044-.12.044-.123.043-.126.043-.129.04-.129.042-.132.039-.136.038-.136.036-.139.036-.14.034-.144.032-.144.03-.148.029-.15.027-.15.024-.153.022-.156.021-.156.017-.159.017-.16.012-.162.01-.165.008-.164.004-.168.002-.167-.002-.164-.004-.164-.008-.163-.01-.16-.012-.16-.017-.155-.018-.156-.02-.152-.022-.151-.024-.149-.027-.148-.029-.144-.03-.143-.032-.141-.035-.14-.035-.135-.036-.136-.038-.132-.04-.13-.04-.127-.041-.126-.043-.124-.043-.12-.044-.12-.044-.116-.046-.113-.046-.113-.046-.108-.046-.108-.047-.104-.047-.101-.046-.1-.048-.097-.047-.094-.046-.095-.048-.172-.09-.165-.09-.155-.087-.142-.083-.133-.08-.12-.075-.11-.07-.096-.064-.086-.057-.076-.053-.101-.073-.076-.056-.095-.078-.1-.095-.087-.094-.093-.112-.06-.085-.1-.159-.014-.025-.083-.163-.011-.026-.069-.18-.032-.1-.035-.143-.022-.13-.017-.141-.004-.118V17.633l.445-1.222-.353.64.63-1.968 3.738-11.65.008-.003.383-1.188.032-.095.042-.113.047-.114.053-.115.061-.12.07-.121.082-.126.096-.13.114-.133.075-.076.126-.114.078-.066.11-.079.102-.065.11-.06.116-.058.126-.051.134-.045.141-.037.146-.027.15-.016.153-.006.152.006zm-.165 1.901l-.011.002-.012.002-.013.003-.011.004-.013.005-.011.006-.012.007-.012.007-.012.009-.023.019-.024.024-.022.026-.023.03-.022.034-.021.037-.021.041-.02.045-.02.048-.02.052-.018.055-.381 1.181-.006-.003-3.738 11.649-.63 1.967-.002.002v78.12l.001.013.001.012.003.013.003.013.009.026.011.026.013.024.016.023.009.01.009.01.01.008.009.008.025.02.074.052.055.039.067.044.077.05.087.058.1.06.108.067.119.07.129.071.138.076.147.077.077.038.08.039.08.04.084.039.085.04.088.04.09.038.09.04.094.037.095.038.097.038.1.038.1.036.102.036.104.035.107.035.106.033.11.032.11.032.113.03.113.029.115.027.117.026.118.025.12.024.12.02.122.02.123.019.124.016.126.014.127.013.128.01.129.009.13.005.13.004.132.001h.132l.132-.005.13-.005.129-.009.128-.01.126-.013.126-.014.125-.016.123-.018.121-.02.121-.021.12-.024.118-.025.117-.026.115-.027.113-.03.113-.03.11-.03.11-.033.107-.033.106-.035.104-.035.103-.036.1-.036.1-.038.097-.038.095-.038.093-.038.092-.039.09-.039.087-.04.085-.039.083-.039.081-.04.08-.039.077-.038.147-.077.138-.076.129-.072.119-.07.109-.065.099-.061.087-.057.078-.05.066-.045.055-.039.075-.053.024-.019.01-.008.008-.008.018-.02.015-.023.014-.024.011-.026.009-.026.003-.013.003-.013v-.012l.002-.013v-78.12h-.001l-.336-1.051-.004-.012-.004-.015-.008-.026-3.944-12.3-.007.002-.444-1.394-.019-.055-.019-.052-.02-.048-.021-.045-.021-.04-.022-.038-.022-.033-.022-.03-.023-.027-.023-.024-.023-.02-.013-.008-.011-.007-.012-.007-.012-.006-.012-.005-.012-.004-.012-.003-.012-.002-.012-.002h-.025zm6.598 13.633l-.004-.013-.008-.021.012.034z"/></g><path d="M49.27 4.017l.38-1.18c.196-.607.516-.607.709 0l.444 1.395c.002-.002.005-.002.008-.002l3.945 12.3c.006.015.008.034.016.053l.336 1.05v78.12a.26.26 0 01-.094.185s-2.188 1.68-5.012 1.68c-2.825 0-5.013-1.68-5.013-1.68a.251.251 0 01-.094-.185V17.631l.631-1.967 3.736-11.65.008.003zm1.121.826c-.25 0-.51-.038-.771-.105l-3.561 11.098-.406 1.268a.321.321 0 01.287.113c.076.089.175.24.293.417.207.317.47.723.74 1.03l.01.013c.288.322.586.527.85.398.314-.159.524-.81.798-1.441.303-.683.685-1.344 1.37-1.344.67 0 1.237.658 1.683 1.344.438.672.763 1.365.952 1.48.118.07.255-.123.392-.405.25-.44.508-.758.718-1.075.115-.178.242-.328.317-.417a.321.321 0 01.287-.113l-.112-.352-.006-.016-.013-.05-3.8-11.843h-.028z" fill-rule="nonzero"/><path d="M49.287 86.346h-.261v-1.46a.45.45 0 01.188.035.95.95 0 01.293.177c.097.078.21.197.333.355.196.24.355.4.468.484a.555.555 0 00.325.126c.11 0 .202-.035.272-.113a.403.403 0 00.113-.3.43.43 0 00-.119-.315.439.439 0 00-.325-.118l.03-.28c.207.022.365.092.473.218.11.124.164.29.164.5 0 .212-.06.381-.175.502a.59.59 0 01-.438.186.639.639 0 01-.26-.054 1.142 1.142 0 01-.27-.18 4.476 4.476 0 01-.39-.42 3.757 3.757 0 00-.276-.311 1.092 1.092 0 00-.145-.116v1.084zm1.29-1.57h-.256v-1.457h.256v1.457zm-.672 0h-.25v-1.457h.25v1.457zm-.88-3.306h2.208v.83c0 .167-.022.301-.068.406a.527.527 0 01-.207.24.58.58 0 01-.293.085.493.493 0 01-.263-.077.55.55 0 01-.204-.234.6.6 0 01-.196.311.555.555 0 01-.336.105.637.637 0 01-.495-.225.67.67 0 01-.11-.242 1.647 1.647 0 01-.035-.355v-.844zm.262.293v.55c0 .092.002.16.01.197.014.067.03.124.06.17.026.042.07.083.123.112.051.027.113.04.186.04a.348.348 0 00.344-.236 1.12 1.12 0 00.035-.322v-.511h-.758zm1.018 0v.476c0 .129.008.223.024.28a.315.315 0 00.11.166.33.33 0 00.194.059.386.386 0 00.194-.054.271.271 0 00.115-.15c.02-.065.03-.178.03-.336v-.441h-.667zm.928-.613h-2.207v-.29h1.037v-1.148h-1.037v-.29h2.207v.29h-.909v1.148h.909v.29zm-2.277-3.784V67.21l1.107-.616 1.108.616v10.155l-1.132.618-1.083-.618zm.116-10.085v10.017l.967.551 1.016-.55V67.28l-.992-.551-.991.55zm1.792 9.832h-1.618v-.207h1.355l-1.355-.47v-.197l1.38-.465h-1.38v-.207h1.618v.323l-1.145.382c-.107.035-.188.059-.239.078.057.018.145.045.258.086l1.126.387v.29zm0-1.785h-.932a1.16 1.16 0 01-.39-.054.47.47 0 01-.234-.201.709.709 0 01-.089-.376c0-.154.025-.277.078-.374a.441.441 0 01.229-.207 1.08 1.08 0 01.406-.062h.932v.215h-.932a.973.973 0 00-.312.038.317.317 0 00-.156.134.496.496 0 00-.054.237c0 .158.038.268.11.336.07.067.207.102.412.102h.932v.212zm-1.618-1.755h1.618v.212h-1.618v-.212zm1.618-.269h-1.618v-.207h1.355l-1.355-.47v-.194l1.38-.47h-1.38v-.207h1.618v.325l-1.145.382-.239.078c.057.016.145.048.258.086l1.126.39v.287zm0-1.76h-.19v-.957h-.495v.895h-.19v-.895h-.552v.994h-.19v-1.21h1.617v1.173zm-1.618-2.694h1.618v.718a.936.936 0 01-.043.328.35.35 0 01-.156.18.416.416 0 01-.241.067.4.4 0 01-.29-.11c-.081-.075-.13-.188-.149-.344a.632.632 0 01-.083.13 1.037 1.037 0 01-.215.177l-.44.282v-.27l.335-.214a2.4 2.4 0 00.223-.156.525.525 0 00.11-.107.508.508 0 00.044-.097c.002-.027.008-.065.008-.121v-.247h-.72v-.216zm.906.216v.46a.64.64 0 00.03.228.23.23 0 00.094.126c.045.03.094.043.148.043.077 0 .14-.027.19-.083.049-.054.073-.143.073-.264v-.51h-.535zm-.906-1.616h1.618v.61a1.5 1.5 0 01-.013.25.478.478 0 01-.078.196.397.397 0 01-.156.132.5.5 0 01-.22.049.492.492 0 01-.35-.132c-.094-.086-.142-.245-.142-.473v-.417h-.659v-.215zm.85.215v.42c0 .137.027.236.075.295.051.06.126.086.22.086a.276.276 0 00.175-.054.23.23 0 00.094-.134.846.846 0 00.014-.199v-.414h-.578zm.44-3.604a.196.196 0 11.393 0 .197.197 0 01-.196.196.196.196 0 01-.197-.196zm.363 0a.166.166 0 00-.166-.167.166.166 0 00-.167.167.167.167 0 00.333 0zm-.277.118v-.054l.049-.03a.078.078 0 00.027-.02c.008-.003.013-.009.013-.014.003 0 .006-.006.006-.008 0 0 .002-.006.002-.014v-.024h-.097v-.046h.229v.103c0 .021 0 .037-.005.045a.066.066 0 01-.025.03.087.087 0 01-.037.01.053.053 0 01-.043-.018.071.071 0 01-.016-.03s-.003 0-.003.003a.095.095 0 01-.03.024l-.07.043zm.189-.164h-.054v.054c0 .01 0 .019.003.027.002.002.005.008.013.01.003.003.005.006.01.006.009 0 .014-.003.022-.01.006-.006.006-.014.006-.028v-.059zm-1.578-1.035a.29.29 0 01.048-.177c.04-.051.108-.086.202-.097a.183.183 0 01.048-.005c.137 0 .288.059.446.174.162.116.266.234.315.35a.47.47 0 01.03.156c0 .1-.036.19-.1.274a.569.569 0 01-.253.183.281.281 0 01-.096.013c-.138 0-.275-.086-.409-.263a1.1 1.1 0 01-.215-.446l-.013-.086c-.003-.027-.003-.054-.003-.076zm.769.428c0-.022-.006-.027-.006-.027a.89.89 0 00-.134-.22c-.116-.148-.186-.18-.226-.18a.056.056 0 00-.032.013c-.051.037-.046.115.002.225l.04.073a.407.407 0 00.337.253l.019-.016v-.121zm-.818-2.116c0-.145.022-.274.068-.381a.486.486 0 01.247-.272.627.627 0 01.266-.062c.177 0 .336.086.473.258.108.135.194.312.255.527l.003.016-.013.014c0 .002-.02.024-.092.142a.393.393 0 01-.15.164.248.248 0 01-.113.027.41.41 0 01-.086-.01.565.565 0 00-.054-.014h-.027l-.002-.03c0-.062.03-.14.088-.23a.193.193 0 00.035-.103.254.254 0 00-.019-.094.825.825 0 00-.113-.202.377.377 0 00-.177-.147c-.008-.006-.019-.006-.03-.009-.01-.002-.021-.005-.032-.005-.019 0-.08 0-.11.126-.01.049-.016.103-.024.164a3.958 3.958 0 00.236 1.328l.022.057-.057-.017c-.185-.053-.325-.19-.416-.408a5.716 5.716 0 01-.145-.554 1.234 1.234 0 01-.033-.285zm1.36-1.938c-.002.006-.016.022-.045.097a.614.614 0 00-.038.145v.108c0 .083-.01.14-.035.175-.04.053-.105.08-.199.08a1.27 1.27 0 01-.23-.032 1.161 1.161 0 00-.219-.035c-.04 0-.08.005-.11.013a.373.373 0 00-.105.051.151.151 0 00-.067.078.342.342 0 000 .229v.008c0 .01-.002.024-.01.038-.003.013-.014.024-.06.053a.189.189 0 01-.1.033.11.11 0 01-.088-.043.358.358 0 01-.054-.116.46.46 0 01-.03-.17.42.42 0 01.157-.335.545.545 0 01.376-.132h.062c.1 0 .19-.005.269-.019.032-.005.096-.019.096-.048 0-.006-.005-.03-.075-.08a4.982 4.982 0 00-.306-.176.99.99 0 01-.307-.233 1.773 1.773 0 01-.129-.17.429.429 0 01-.08-.215c0-.019 0-.035.002-.045.03-.103.076-.156.137-.156.06 0 .13.053.218.166l.167.21c.107.091.17.145.19.164.073.056.143.102.21.134.081.049.145.084.197.108.11.059.16.064.188.062l.005-.003.01.06c.003 0 .003-.004.003-.004zm-1.626-1.529c0-.108.081-.202.242-.274l.31-.11a1.774 1.774 0 01-.16-.25c-.11-.218-.126-.393-.04-.516a.322.322 0 01.162-.119.729.729 0 01.21-.035c.196 0 .394.092.593.272.172.158.307.344.393.55l.003.006-.003.011a.675.675 0 01-.164.336 1.47 1.47 0 01-.282.255.267.267 0 01-.132.035c-.067 0-.172-.04-.312-.123a1.14 1.14 0 00-.158-.078.466.466 0 00-.09-.022.173.173 0 00-.058-.01.202.202 0 00-.1.029.063.063 0 00-.032.032.125.125 0 00-.01.057c0 .01.005.05.037.204.013.06.019.102.019.14v.086l-.035-.011a.572.572 0 01-.264-.177.417.417 0 01-.129-.288zm.707-1.037l-.021.021c-.051.035-.04.1.002.185l.04.078c.063.127.127.232.197.315.102.124.199.183.296.183.013 0 .03 0 .05-.008.07-.017.081-.049.081-.076a.219.219 0 00-.027-.088c-.002-.003-.021-.035-.107-.164a1.383 1.383 0 00-.31-.304c-.015-.013-.085-.06-.2-.142zm-.142-.514c-.116.051-.132.049-.148.04a.216.216 0 01-.113-.115.43.43 0 01-.051-.207c0-.134.054-.255.156-.36.04-.038.08-.07.12-.105.006-.008.012-.016.012-.027a.352.352 0 00-.035-.105c-.011-.019-.038-.067-.124-.174a.33.33 0 01-.08-.207c0-.189.016-.304.045-.366.048-.089.159-.134.32-.134h.051l-.051.086a.733.733 0 00-.04.115.834.834 0 00.037.398c.011.04.046.086.097.142.148.162.17.218.17.248a.132.132 0 01-.038.094.316.316 0 01-.11.08.34.34 0 00-.148.14.41.41 0 00-.035.183c0 .032.002.062.008.089.019.148.019.15.019.158v.027h-.062zm.793-.602l.043-.016.118-.046a.565.565 0 01.177-.032c.035 0 .076.005.13.01l-.009.06c.016 0 .027-.014.027-.03v.014l-.005.008a.634.634 0 01-.105.1l-.07.072h-.008a.17.17 0 01-.183-.032c-.01-.003-.024-.017-.083-.076l-.032-.032zm-1.121-2.131c0-.057.04-.11.124-.154a.55.55 0 01.241-.056c.113 0 .315-.005.594-.019.28-.01.468-.016.554-.016.062 0 .161-.024.301-.067a.726.726 0 01.207-.035h.03v.03c0 .239-.15.381-.45.421l-.617.04c.15.119.317.235.492.347.193.124.39.24.594.342a.896.896 0 01.241.185.846.846 0 01.175.218c.01.019.014.024.022.027l.024.016-.016.024c-.006.014-.014.022-.016.03-.014.024-.014.04-.014.048v.006l.003.037-.035-.005c-.027-.003-.043-.008-.057-.008-.045-.006-.048-.006-.134-.051a2.02 2.02 0 01-.226-.14 1.039 1.039 0 00-.1-.065c-.074-.045-.193-.115-.346-.21-.159-.096-.28-.166-.36-.214a3.081 3.081 0 00-.374-.18 3.402 3.402 0 01-.37-.186c-.127-.075-.25-.148-.374-.218-.075-.043-.113-.09-.113-.147zm1.059-3.384a.372.372 0 01.373.376c0 .102-.034.19-.107.263a.361.361 0 01-.266.11.357.357 0 01-.266-.11.359.359 0 01-.108-.263.36.36 0 01.108-.266.368.368 0 01.266-.11zm1.115-.568h-2.177v-.266h1.699a1.181 1.181 0 01-.183-.252 1.685 1.685 0 01-.14-.28h.256c.072.148.158.28.258.39.097.113.193.19.287.24v.168zm-1.107-2.537c.255 0 .462.027.618.078a.795.795 0 01.366.237c.08.104.123.236.123.392 0 .116-.021.22-.07.306a.58.58 0 01-.201.218 1.04 1.04 0 01-.323.135 2.166 2.166 0 01-.513.048 2.04 2.04 0 01-.618-.078.76.76 0 01-.36-.234.602.602 0 01-.13-.395c0-.21.073-.374.226-.492.18-.145.473-.215.882-.215zm0 .272c-.355 0-.591.043-.71.126-.118.083-.18.185-.18.31 0 .123.062.225.18.308.119.084.355.124.71.124s.594-.04.712-.124a.369.369 0 00.175-.312.34.34 0 00-.153-.293c-.135-.091-.38-.14-.734-.14zm0-1.81c.255 0 .462.028.618.081a.795.795 0 01.366.237c.08.105.123.234.123.392 0 .116-.021.22-.07.307a.58.58 0 01-.201.217 1.11 1.11 0 01-.323.135 2.015 2.015 0 01-.513.05c-.255 0-.462-.026-.618-.08a.74.74 0 01-.36-.234.602.602 0 01-.13-.395c0-.21.073-.373.226-.492.18-.145.473-.217.882-.217zm0 .278c-.355 0-.591.043-.71.123-.118.084-.18.186-.18.31 0 .123.062.225.18.308.119.084.355.124.71.124s.594-.04.712-.124c.118-.083.175-.185.175-.311a.34.34 0 00-.153-.293c-.135-.092-.38-.137-.734-.137zm-.814-.412h-.256v-1.432a.57.57 0 01.183.03.994.994 0 01.288.177c.099.08.207.196.33.35.194.236.347.394.46.478.113.083.22.123.32.123a.361.361 0 00.268-.113.409.409 0 00.108-.295.405.405 0 00-.116-.31c-.075-.077-.182-.115-.32-.115l.03-.274c.204.016.36.089.465.212.11.121.161.285.161.492 0 .21-.056.374-.174.495a.56.56 0 01-.425.182.686.686 0 01-.26-.053.976.976 0 01-.261-.178 3.46 3.46 0 01-.382-.411c-.137-.159-.226-.263-.277-.31a1.018 1.018 0 00-.142-.11v1.062zm.806-2.274a.372.372 0 01.373.377.37.37 0 01-.373.376.37.37 0 01-.374-.376c0-.105.035-.191.108-.266a.368.368 0 01.266-.11zm-.613-1.903h-.19V40.3h1.607v.191H49.6v.712zm-.19-2.3l1.607.553v.207l-1.608.592v-.215l.487-.17v-.604l-.487-.159v-.204zm.66.419v.49l.444-.154a4.25 4.25 0 01.33-.1 2.246 2.246 0 01-.306-.08l-.468-.156zm.159-.44h-.597a1.028 1.028 0 01-.188-.291.777.777 0 01.04-.696.611.611 0 01.293-.264.993.993 0 01.425-.088c.159 0 .307.03.44.088.135.06.237.145.302.256a.73.73 0 01.097.379.7.7 0 01-.057.285.483.483 0 01-.156.198.801.801 0 01-.263.11l-.054-.171a.633.633 0 00.194-.081.343.343 0 00.113-.14.44.44 0 00.043-.199.484.484 0 00-.046-.225.402.402 0 00-.116-.156.612.612 0 00-.158-.092.967.967 0 00-.323-.053.837.837 0 00-.36.067.434.434 0 00-.215.193.557.557 0 00-.016.514c.035.078.07.137.11.177h.301v-.425h.188l.003.613zm.788-1.509h-.928c-.164 0-.293-.016-.387-.048a.444.444 0 01-.231-.177.567.567 0 01-.091-.34.65.65 0 01.078-.332.43.43 0 01.228-.183c.097-.038.231-.054.403-.054h.928v.19h-.928c-.14 0-.242.012-.309.033a.302.302 0 00-.153.121.395.395 0 00-.054.207c0 .143.032.242.108.301.07.062.204.091.408.091h.928v.191zm0-1.233h-.191v-.479H49.41v-.19h1.417v-.48h.19v1.149zm-1.608-2.355h1.608v.64a.749.749 0 01-.046.293.348.348 0 01-.15.161.506.506 0 01-.245.06.426.426 0 01-.288-.1.487.487 0 01-.148-.307.476.476 0 01-.08.116c-.06.054-.13.107-.213.158l-.438.25v-.239l.334-.193c.096-.054.172-.1.22-.137a.394.394 0 00.107-.097.235.235 0 00.043-.086.492.492 0 00.009-.108v-.22h-.713v-.19zm1.427.19h-.529v.412c0 .086.008.153.03.204a.224.224 0 00.094.11c.045.027.094.04.145.04.078 0 .14-.023.188-.074.048-.049.072-.127.072-.234v-.457zm-.645-1.725c.266 0 .473.065.627.194.15.129.225.295.225.5a.649.649 0 01-.403.605 1.05 1.05 0 01-.43.086c-.161 0-.309-.03-.438-.09a.625.625 0 01-.29-.252.653.653 0 01.309-.96.964.964 0 01.4-.083zm-.002.2c-.197 0-.347.045-.457.139a.44.44 0 00-.17.355c0 .142.057.26.172.352.108.094.27.14.476.14a.881.881 0 00.342-.06.472.472 0 00.228-.174.433.433 0 00.08-.258.455.455 0 00-.155-.347c-.102-.1-.274-.148-.516-.148zm-.78-1.388h1.608v.546c0 .097-.006.172-.017.22a.406.406 0 01-.075.18.393.393 0 01-.153.113.548.548 0 01-.22.046.512.512 0 01-.347-.118c-.097-.078-.143-.22-.143-.422v-.374h-.653v-.19zm.844.191v.376c0 .121.022.213.075.264.049.05.124.078.215.078.07 0 .124-.016.175-.046a.222.222 0 00.092-.12.66.66 0 00.016-.181v-.37h-.573zm-.677-1.868l.645-2.107.645 2.107-.645.645-.645-.645zm.645-1.723l-.516 1.69.516.52.519-.52-.519-1.69z" fill="#fff" fill-rule="nonzero"/></svg>